<svg width="36" height="36" viewBox="0 0 36 36" fill="none" xmlns="http://www.w3.org/2000/svg">
<path d="M18 25.2C21.9764 25.2 25.2 21.9765 25.2 18C25.2 14.0236 21.9764 10.8 18 10.8C14.0235 10.8 10.8 14.0236 10.8 18C10.8 21.9765 14.0235 25.2 18 25.2Z" fill="#D2C8FA"/>
<path d="M18 7.1999C17.6818 7.1999 17.3765 7.07347 17.1515 6.84843C16.9265 6.62339 16.8 6.31816 16.8 5.9999V3.5999C16.8 3.28164 16.9265 2.97642 17.1515 2.75137C17.3765 2.52633 17.6818 2.3999 18 2.3999C18.3183 2.3999 18.6235 2.52633 18.8486 2.75137C19.0736 2.97642 19.2 3.28164 19.2 3.5999V5.9999C19.2 6.31816 19.0736 6.62339 18.8486 6.84843C18.6235 7.07347 18.3183 7.1999 18 7.1999ZM18 33.5999C17.6818 33.5999 17.3765 33.4735 17.1515 33.2484C16.9265 33.0234 16.8 32.7182 16.8 32.3999V29.9999C16.8 29.6816 16.9265 29.3764 17.1515 29.1514C17.3765 28.9263 17.6818 28.7999 18 28.7999C18.3183 28.7999 18.6235 28.9263 18.8486 29.1514C19.0736 29.3764 19.2 29.6816 19.2 29.9999V32.3999C19.2 32.7182 19.0736 33.0234 18.8486 33.2484C18.6235 33.4735 18.3183 33.5999 18 33.5999ZM6.00002 19.1999H3.60002C3.28176 19.1999 2.97654 19.0735 2.7515 18.8484C2.52645 18.6234 2.40002 18.3182 2.40002 17.9999C2.40002 17.6816 2.52645 17.3764 2.7515 17.1514C2.97654 16.9263 3.28176 16.7999 3.60002 16.7999H6.00002C6.31828 16.7999 6.62351 16.9263 6.84855 17.1514C7.0736 17.3764 7.20002 17.6816 7.20002 17.9999C7.20002 18.3182 7.0736 18.6234 6.84855 18.8484C6.62351 19.0735 6.31828 19.1999 6.00002 19.1999ZM32.4 19.1999H30C29.6818 19.1999 29.3765 19.0735 29.1515 18.8484C28.9265 18.6234 28.8 18.3182 28.8 17.9999C28.8 17.6816 28.9265 17.3764 29.1515 17.1514C29.3765 16.9263 29.6818 16.7999 30 16.7999H32.4C32.7183 16.7999 33.0235 16.9263 33.2486 17.1514C33.4736 17.3764 33.6 17.6816 33.6 17.9999C33.6 18.3182 33.4736 18.6234 33.2486 18.8484C33.0235 19.0735 32.7183 19.1999 32.4 19.1999ZM7.81202 29.3879C7.4955 29.3834 7.19358 29.254 6.97202 29.0279C6.74852 28.8031 6.62307 28.4989 6.62307 28.1819C6.62307 27.8649 6.74852 27.5607 6.97202 27.3359L8.66402 25.6319C8.88999 25.4059 9.19646 25.279 9.51602 25.279C9.83559 25.279 10.1421 25.4059 10.368 25.6319C10.594 25.8579 10.7209 26.1643 10.7209 26.4839C10.7209 26.8035 10.594 27.1099 10.368 27.3359L8.66402 29.0279C8.55289 29.1413 8.42035 29.2315 8.2741 29.2933C8.12785 29.3551 7.97079 29.3872 7.81202 29.3879ZM26.484 10.7159C26.3261 10.7168 26.1695 10.6865 26.0233 10.6268C25.8771 10.5671 25.7442 10.4791 25.632 10.3679C25.5196 10.2563 25.4303 10.1236 25.3694 9.97739C25.3084 9.83116 25.2771 9.67432 25.2771 9.5159C25.2771 9.35749 25.3084 9.20064 25.3694 9.05441C25.4303 8.90818 25.5196 8.77546 25.632 8.6639L27.336 6.9719C27.5656 6.77531 27.8609 6.67258 28.1629 6.68425C28.4649 6.69591 28.7514 6.82111 28.9651 7.03483C29.1788 7.24854 29.304 7.53503 29.3157 7.83704C29.3273 8.13905 29.2246 8.43434 29.028 8.6639L27.336 10.3679C27.2239 10.4791 27.0909 10.5671 26.9447 10.6268C26.7985 10.6865 26.642 10.7168 26.484 10.7159ZM28.188 29.3879C28.0293 29.3872 27.8722 29.3551 27.7259 29.2933C27.5797 29.2315 27.4472 29.1413 27.336 29.0279L25.632 27.3359C25.5201 27.224 25.4314 27.0912 25.3708 26.945C25.3103 26.7988 25.2791 26.6421 25.2791 26.4839C25.2791 26.3257 25.3103 26.169 25.3708 26.0228C25.4314 25.8766 25.5201 25.7438 25.632 25.6319C25.7439 25.52 25.8767 25.4313 26.0229 25.3707C26.1691 25.3102 26.3258 25.279 26.484 25.279C26.6423 25.279 26.7989 25.3102 26.9451 25.3707C27.0913 25.4313 27.2241 25.52 27.336 25.6319L29.028 27.3359C29.2515 27.5607 29.377 27.8649 29.377 28.1819C29.377 28.4989 29.2515 28.8031 29.028 29.0279C28.8065 29.254 28.5045 29.3834 28.188 29.3879ZM9.51602 10.7159C9.3581 10.7168 9.20154 10.6865 9.05534 10.6268C8.90913 10.5671 8.77615 10.4791 8.66402 10.3679L6.97202 8.6639C6.77543 8.43434 6.67271 8.13905 6.68437 7.83704C6.69604 7.53503 6.82124 7.24854 7.03495 7.03483C7.24866 6.82111 7.53515 6.69591 7.83716 6.68425C8.13917 6.67258 8.43446 6.77531 8.66402 6.9719L10.368 8.6639C10.4805 8.77546 10.5698 8.90818 10.6307 9.05441C10.6916 9.20064 10.723 9.35749 10.723 9.5159C10.723 9.67432 10.6916 9.83116 10.6307 9.97739C10.5698 10.1236 10.4805 10.2563 10.368 10.3679C10.2559 10.4791 10.1229 10.5671 9.97671 10.6268C9.83051 10.6865 9.67395 10.7168 9.51602 10.7159Z" fill="#D2C8FA"/>
</svg>
