<svg width="160" height="160" viewBox="0 0 160 160" fill="none" xmlns="http://www.w3.org/2000/svg">
<path d="M80 0C35.8172 0 0 35.8172 0 80C0 124.183 35.8172 160 80 160C124.183 160 160 124.183 160 80C160 35.8172 124.183 0 80 0ZM39.3056 55.9722C39.3981 55.9664 39.4908 55.9664 39.5833 55.9722C39.7265 56.0047 39.866 56.0512 40 56.1111L80 55.9722H120.417C120.747 55.9664 121.075 56.0343 121.376 56.1711C121.676 56.3078 121.943 56.51 122.156 56.7628C122.369 57.0156 122.523 57.3126 122.606 57.6324C122.69 57.9521 122.701 58.2865 122.639 58.6111V108.889C122.639 109.478 122.405 110.043 121.988 110.46C121.571 110.877 121.006 111.111 120.417 111.111H39.5833C38.994 111.111 38.4288 110.877 38.0121 110.46C37.5953 110.043 37.3612 109.478 37.3611 108.889V58.3333C37.3213 57.7657 37.5008 57.2043 37.8625 56.7651C38.2243 56.3258 38.7408 56.042 39.3056 55.9722ZM80 60.4167L47.3611 60.5556L80 80.9722L112.778 60.4167H80ZM41.8056 62.2222V106.667H118.194V62.2222L81.25 85.4167C80.8962 85.6385 80.487 85.7562 80.0695 85.7562C79.6518 85.7562 79.2427 85.6385 78.8889 85.4167L41.8056 62.2222Z" fill="#0B0133"/>
</svg>
