<svg width="160" height="160" viewBox="0 0 160 160" fill="none" xmlns="http://www.w3.org/2000/svg">
<g clip-path="url(#clip0_515_10)">
<path d="M79.9901 0C35.82 0 4.61648e-05 35.96 4.61648e-05 80.32C-0.018 97.1555 5.25519 113.571 15.0744 127.246C24.8935 140.922 38.7621 151.166 54.72 156.53C58.7201 157.27 60.18 154.79 60.18 152.66C60.18 150.75 60.11 145.7 60.07 139C37.82 143.85 33.12 128.23 33.12 128.23C29.49 118.95 24.24 116.48 24.24 116.48C16.97 111.5 24.78 111.6 24.78 111.6C32.81 112.17 37.03 119.88 37.03 119.88C44.17 132.15 55.76 128.61 60.32 126.55C61.04 121.36 63.11 117.82 65.4 115.81C47.64 113.78 28.96 106.89 28.96 76.12C28.96 67.35 32.08 60.18 37.2 54.56C36.37 52.53 33.63 44.36 37.98 33.31C37.98 33.31 44.7001 31.15 59.98 41.54C66.5075 39.7561 73.2432 38.8482 80.0101 38.84C86.7772 38.8534 93.5126 39.7647 100.04 41.55C115.31 31.16 122.02 33.32 122.02 33.32C126.38 44.38 123.64 52.54 122.82 54.57C127.95 60.19 131.04 67.36 131.04 76.13C131.04 106.98 112.34 113.77 94.52 115.76C97.39 118.24 99.95 123.14 99.95 130.63C99.95 141.37 99.85 150.03 99.85 152.66C99.85 154.81 101.29 157.31 105.35 156.52C121.292 151.143 135.144 140.895 144.949 127.223C154.755 113.551 160.019 97.1448 160 80.32C160 35.96 124.18 0 79.9901 0Z" fill="#0B0133"/>
</g>
<defs>
<clipPath id="clip0_515_10">
<rect width="160" height="160" fill="white"/>
</clipPath>
</defs>
</svg>
