<svg width="36" height="36" viewBox="0 0 36 36" fill="none" xmlns="http://www.w3.org/2000/svg">
<path d="M24.6942 3.23999C26.8215 4.42883 28.6443 6.09463 30.0194 8.10657C31.3944 10.1185 32.2844 12.4218 32.6194 14.8357C32.9544 17.2495 32.7252 19.7081 31.95 22.0185C31.1747 24.3288 29.8744 26.428 28.1512 28.1512C26.428 29.8744 24.3288 31.1747 22.0185 31.95C19.7081 32.7252 17.2495 32.9544 14.8357 32.6194C12.4218 32.2844 10.1185 31.3944 8.10657 30.0194C6.09463 28.6443 4.42883 26.8215 3.23999 24.6942C9.24299 28.0548 16.9794 27.1908 22.0842 22.086C27.1908 16.9794 28.0566 9.24479 24.6942 3.23999V3.23999Z" fill="#0B0133"/>
</svg>
