<svg width="160" height="160" viewBox="0 0 160 160" fill="none" xmlns="http://www.w3.org/2000/svg">
<path d="M87.9702 70.7685H88.0929V70.5759L87.9702 70.7685ZM87.9702 70.7685H88.0929V70.5759L87.9702 70.7685ZM87.9702 70.7685H88.0929V70.5759L87.9702 70.7685ZM87.9702 70.7685H88.0929V70.5759L87.9702 70.7685ZM87.9702 70.7685H88.0929V70.5759L87.9702 70.7685ZM87.9702 70.7685H88.0929V70.5759L87.9702 70.7685ZM87.9702 70.7685H88.0929V70.5759L87.9702 70.7685ZM87.9702 70.7685H88.0929V70.5759L87.9702 70.7685ZM87.9702 70.7685H88.0929V70.5759L87.9702 70.7685ZM87.9702 70.7685H88.0929V70.5759L87.9702 70.7685ZM87.9702 70.7685H88.0929V70.5759L87.9702 70.7685ZM87.9702 70.7685H88.0929V70.5759L87.9702 70.7685ZM87.9702 70.7685H88.0929V70.5759L87.9702 70.7685ZM87.9702 70.7685H88.0929V70.5759L87.9702 70.7685ZM87.9702 70.7685H88.0929V70.5759L87.9702 70.7685ZM87.9702 70.7685H88.0929V70.5759L87.9702 70.7685ZM80 0C64.1775 0 48.7103 4.69192 35.5544 13.4824C22.3985 22.2729 12.1447 34.7672 6.08967 49.3853C0.0346618 64.0034 -1.5496 80.0887 1.53721 95.6072C4.62403 111.126 12.2433 125.38 23.4315 136.569C34.6197 147.757 48.8743 155.376 64.3928 158.463C79.9113 161.55 95.9966 159.965 110.615 153.91C125.233 147.855 137.727 137.602 146.518 124.446C155.308 111.29 160 95.8225 160 80C159.977 58.7898 151.541 38.4549 136.543 23.4571C121.545 8.45917 101.21 0.0231831 80 0ZM59.9956 116.015C59.991 116.37 59.8469 116.708 59.5944 116.957C59.342 117.206 59.0016 117.346 58.6468 117.346H43.2319C42.8788 117.346 42.5402 117.206 42.2905 116.956C42.0409 116.707 41.9006 116.368 41.9006 116.015V64.2172C41.8983 64.0409 41.931 63.8659 41.9969 63.7024C42.0627 63.5388 42.1604 63.39 42.2843 63.2645C42.4081 63.139 42.5557 63.0394 42.7184 62.9714C42.881 62.9034 43.0556 62.8684 43.2319 62.8684H58.6468C58.824 62.8684 58.9994 62.9033 59.163 62.9711C59.3267 63.0388 59.4753 63.1382 59.6006 63.2634C59.7258 63.3887 59.8252 63.5374 59.893 63.701C59.9608 63.8647 59.9956 64.0401 59.9956 64.2172V116.015ZM50.3963 55.9492C48.4805 55.9492 46.6076 55.3811 45.0146 54.3167C43.4216 53.2522 42.18 51.7394 41.4468 49.9693C40.7137 48.1993 40.5218 46.2516 40.8956 44.3725C41.2694 42.4934 42.192 40.7674 43.5467 39.4126C44.9014 38.0579 46.6275 37.1353 48.5065 36.7616C50.3856 36.3878 52.3333 36.5796 54.1034 37.3128C55.8734 38.046 57.3863 39.2876 58.4507 40.8806C59.5151 42.4736 60.0832 44.3464 60.0832 46.2623C60.0855 47.5351 59.8366 48.7957 59.3506 49.972C58.8646 51.1484 58.1511 52.2171 57.2512 53.1171C56.3512 54.0171 55.2824 54.7305 54.1061 55.2165C52.9298 55.7025 51.6691 55.9515 50.3963 55.9492ZM125.229 116.015C125.224 116.37 125.08 116.708 124.828 116.957C124.575 117.206 124.235 117.346 123.88 117.346H108.465C108.29 117.346 108.117 117.312 107.956 117.245C107.794 117.178 107.647 117.08 107.524 116.956C107.4 116.833 107.302 116.686 107.235 116.524C107.168 116.363 107.134 116.19 107.134 116.015V88.1804C107.134 80.8583 104.524 75.9185 97.9724 75.9185C95.931 75.9299 93.943 76.5724 92.281 77.7578C90.6189 78.9432 89.3641 80.6135 88.6884 82.5399C88.2266 83.9637 88.0249 85.459 88.0929 86.9542V116.015C88.0929 116.373 87.9508 116.716 87.6978 116.969C87.4449 117.222 87.1018 117.364 86.7441 117.364H71.3291C71.1528 117.364 70.9783 117.329 70.8156 117.261C70.6529 117.193 70.5054 117.093 70.3815 116.968C70.2577 116.842 70.16 116.693 70.0941 116.53C70.0282 116.366 69.9955 116.191 69.9978 116.015C69.9978 108.623 70.1905 72.7304 69.9978 64.2873C69.9955 64.111 70.0282 63.936 70.0941 63.7724C70.16 63.6089 70.2577 63.46 70.3815 63.3346C70.5054 63.2091 70.6529 63.1094 70.8156 63.0414C70.9783 62.9734 71.1528 62.9384 71.3291 62.9385H86.709C86.8868 62.9361 87.0633 62.9694 87.228 63.0363C87.3927 63.1033 87.5423 63.2025 87.668 63.3283C87.7937 63.454 87.893 63.6036 87.96 63.7683C88.0269 63.933 88.0602 64.1095 88.0578 64.2873V70.6459C89.6963 67.8016 92.0825 65.4603 94.9575 63.8762C97.8324 62.292 101.086 61.5255 104.366 61.6597C116.26 61.6597 125.194 69.4373 125.194 86.1835L125.229 116.015ZM88.0929 70.8211V70.6284L87.9702 70.8211H88.0929ZM87.9702 70.8211H88.0929V70.6284L87.9702 70.8211ZM87.9702 70.8211H88.0929V70.6284L87.9702 70.8211ZM87.9702 70.8211H88.0929V70.6284L87.9702 70.8211ZM87.9702 70.8211H88.0929V70.6284L87.9702 70.8211ZM87.9702 70.8211H88.0929V70.6284L87.9702 70.8211ZM87.9702 70.8211H88.0929V70.6284L87.9702 70.8211ZM87.9702 70.8211H88.0929V70.6284L87.9702 70.8211ZM87.9702 70.8211H88.0929V70.6284L87.9702 70.8211ZM87.9702 70.8211H88.0929V70.6284L87.9702 70.8211ZM87.9702 70.8211H88.0929V70.6284L87.9702 70.8211ZM87.9702 70.8211H88.0929V70.6284L87.9702 70.8211ZM87.9702 70.8211H88.0929V70.6284L87.9702 70.8211ZM87.9702 70.8211H88.0929V70.6284L87.9702 70.8211ZM87.9702 70.8211H88.0929V70.6284L87.9702 70.8211Z" fill="#D2C8FA"/>
</svg>
