<svg width="160" height="160" viewBox="0 0 160 160" fill="none" xmlns="http://www.w3.org/2000/svg">
<path d="M80 0C35.82 0 0 35.82 0 80C0 124.18 35.82 160 80 160C124.18 160 160 124.18 160 80C160 35.82 124.18 0 80 0ZM119.293 54.8067L106.16 116.673C105.193 121.06 102.58 122.127 98.9333 120.06L78.9333 105.327L69.2933 114.62C68.36 115.82 66.9133 116.587 65.2933 116.587C65.28 116.587 65.2733 116.587 65.26 116.587L66.68 96.2267L103.747 62.7467C105.347 61.3267 103.387 60.52 101.26 61.94L55.4667 90.78L35.7333 84.62C31.4667 83.2667 31.3467 80.3533 36.6333 78.26L113.74 48.54C117.327 47.2333 120.447 49.3933 119.287 54.8133L119.293 54.8067Z" fill="#0B0133"/>
</svg>
